{
  "accessors": [
    {
      "bufferView": 2,
      "componentType": 5126,
      "count": 183,
      "max": [
        82.743560791015625,
        103.06261444091797,
        85.848281860351562
      ],
      "min": [
        -77.476150512695312,
        -30.789403915405273,
        -56.852783203125
      ],
      "type": "VEC3"
    },
    {
      "bufferView": 2,
      "byteOffset": 2196,
      "componentType": 5126,
      "count": 183,
      "max": [
        0.9879302978515625,
        0.92844587564468384,
        0.96532720327377319
      ],
      "min": [
        -0.9993060827255249,
        -0.81619513034820557,
        -0.88515287637710571
      ],
      "type": "VEC3"
    },
    {
      "bufferView": 1,
      "componentType": 5126,
      "count": 183,
      "max": [
        67.453353881835938,
        1838.14013671875
      ],
      "min": [
        -67.453353881835938,
        -17.073486328125
      ],
      "type": "VEC2"
    },
    {
      "bufferView": 0,
      "componentType": 5125,
      "count": 534,
      "max": [
        182
      ],
      "min": [
        0
      ],
      "type": "SCALAR"
    },
    {
      "bufferView": 2,
      "byteOffset": 4392,
      "componentType": 5126,
      "count": 305,
      "max": [
        54.728130340576172,
        18.531858444213867,
        40.598018646240234
      ],
      "min": [
        -56.862545013427734,
        -38.884220123291016,
        -51.6851806640625
      ],
      "type": "VEC3"
    },
    {
      "bufferView": 2,
      "byteOffset": 8052,
      "componentType": 5126,
      "count": 305,
      "max": [
        0.87427991628646851,
        0.95740151405334473,
        0.68728423118591309
      ],
      "min": [
        -0.97367435693740845,
        -0.99247348308563232,
        -0.99989116191864014
      ],
      "type": "VEC3"
    },
    {
      "bufferView": 1,
      "byteOffset": 1464,
      "componentType": 5126,
      "count": 305,
      "max": [
        97.389183044433594,
        53.543212890625
      ],
      "min": [
        -33.539825439453125,
        -68.3853759765625
      ],
      "type": "VEC2"
    },
    {
      "bufferView": 0,
      "byteOffset": 2136,
      "componentType": 5125,
      "count": 1572,
      "max": [
        304
      ],
      "min": [
        0
      ],
      "type": "SCALAR"
    }
  ],
  "asset": {
    "extras": {
      "author": "IOX (https://sketchfab.com/ctrld3l)",
      "license": "CC-BY-4.0 (http://creativecommons.org/licenses/by/4.0/)",
      "source": "https://sketchfab.com/3d-models/medical-mask-0b2bd5fe961e42b584648101e51bd68f",
      "title": "Medical Mask"
    },
    "generator": "Sketchfab-8.24.0",
    "version": "2.0"
  },
  "bufferViews": [
    {
      "buffer": 0,
      "byteLength": 8424,
      "byteOffset": 0,
      "name": "floatBufferViews",
      "target": 34963
    },
    {
      "buffer": 0,
      "byteLength": 3904,
      "byteOffset": 8424,
      "byteStride": 8,
      "name": "floatBufferViews",
      "target": 34962
    },
    {
      "buffer": 0,
      "byteLength": 11712,
      "byteOffset": 12328,
      "byteStride": 12,
      "name": "floatBufferViews",
      "target": 34962
    }
  ],
  "buffers": [
    {
      "byteLength": 24040,
      "uri": "scene.bin"
    }
  ],
  "materials": [
    {
      "doubleSided": true,
      "emissiveFactor": [
        0,
        0,
        0
      ],
      "name": "FABRIC_1_FRONT_4317",
      "pbrMetallicRoughness": {
        "baseColorFactor": [
          1,
          1,
          1,
          1
        ],
        "metallicFactor": 0,
        "roughnessFactor": 0.9827475502465659
      }
    },
    {
      "doubleSided": true,
      "emissiveFactor": [
        0,
        0,
        0
      ],
      "name": "FABRIC_2_FRONT_4322",
      "pbrMetallicRoughness": {
        "baseColorFactor": [
          0.28852863303107146,
          0.63932106134949862,
          0.70760125268926688,
          1
        ],
        "metallicFactor": 0,
        "roughnessFactor": 0.9827475502465659
      }
    }
  ],
  "meshes": [
    {
      "primitives": [
        {
          "attributes": {
            "NORMAL": 1,
            "POSITION": 0,
            "TEXCOORD_0": 2
          },
          "indices": 3,
          "material": 0,
          "mode": 4
        }
      ]
    },
    {
      "primitives": [
        {
          "attributes": {
            "NORMAL": 5,
            "POSITION": 4,
            "TEXCOORD_0": 6
          },
          "indices": 7,
          "material": 1,
          "mode": 4
        }
      ]
    }
  ],
  "nodes": [
    {
      "children": [
        1
      ],
      "name": "RootNode (gltf orientation matrix)",
      "rotation": [
        -0.70710678118654746,
        -0,
        -0,
        0.70710678118654757
      ]
    },
    {
      "children": [
        2
      ],
      "matrix": [
        0.0090920897200703621,
        0,
        0,
        0,
        0,
        0.0090188927556740794,
        -0.0011513785439732915,
        0,
        0,
        0.0011513785439732915,
        0.0090188927556740794,
        0,
        0,
        -1.5764943361282349,
        4.180783748626709,
        1
      ],
      "name": "RootNode (model correction matrix)"
    },
    {
      "children": [
        3,
        4
      ],
      "name": "mask2.obj.cleaner.materialmerger.gles"
    },
    {
      "mesh": 0,
      "name": ""
    },
    {
      "mesh": 1,
      "name": ""
    }
  ],
  "scene": 0,
  "scenes": [
    {
      "name": "OSG_Scene",
      "nodes": [
        0
      ]
    }
  ]
}

