{
  "accessors": [
    {
      "bufferView": 2,
      "componentType": 5126,
      "count": 1212,
      "max": [
        3.1933691501617432,
        1.4203968048095703,
        2.2991127967834473
      ],
      "min": [
        -3.1933693885803223,
        -11.087182998657227,
        -2.2991127967834473
      ],
      "type": "VEC3"
    },
    {
      "bufferView": 2,
      "byteOffset": 14544,
      "componentType": 5126,
      "count": 1212,
      "max": [
        1,
        1,
        1
      ],
      "min": [
        -1,
        -1,
        -1
      ],
      "type": "VEC3"
    },
    {
      "bufferView": 3,
      "componentType": 5126,
      "count": 1212,
      "max": [
        1,
        0.99933236837387085,
        1,
        1
      ],
      "min": [
        -1,
        -0.97652131319046021,
        -1,
        -1
      ],
      "type": "VEC4"
    },
    {
      "bufferView": 1,
      "componentType": 5126,
      "count": 1212,
      "max": [
        0.9951171875,
        0.93689155578613281
      ],
      "min": [
        0.0048828125,
        0.0048828125
      ],
      "type": "VEC2"
    },
    {
      "bufferView": 0,
      "componentType": 5125,
      "count": 5448,
      "max": [
        1211
      ],
      "min": [
        0
      ],
      "type": "SCALAR"
    },
    {
      "bufferView": 2,
      "byteOffset": 29088,
      "componentType": 5126,
      "count": 1192,
      "max": [
        3.1933691501617432,
        -3.138859748840332,
        2.2991127967834473
      ],
      "min": [
        -3.1933693885803223,
        -11.08553409576416,
        -2.2991127967834473
      ],
      "type": "VEC3"
    },
    {
      "bufferView": 2,
      "byteOffset": 43392,
      "componentType": 5126,
      "count": 1192,
      "max": [
        1,
        0.99999940395355225,
        1
      ],
      "min": [
        -1,
        -1,
        -1
      ],
      "type": "VEC3"
    },
    {
      "bufferView": 1,
      "byteOffset": 9696,
      "componentType": 5126,
      "count": 1192,
      "max": [
        1,
        1
      ],
      "min": [
        0,
        0
      ],
      "type": "VEC2"
    },
    {
      "bufferView": 0,
      "byteOffset": 21792,
      "componentType": 5125,
      "count": 4056,
      "max": [
        1191
      ],
      "min": [
        0
      ],
      "type": "SCALAR"
    },
    {
      "bufferView": 2,
      "byteOffset": 57696,
      "componentType": 5126,
      "count": 4560,
      "max": [
        2.6039667129516602,
        3.5090019702911377,
        1.9153956174850464
      ],
      "min": [
        -1.9293946027755737,
        -2.992847204208374,
        -1.9429407119750977
      ],
      "type": "VEC3"
    },
    {
      "bufferView": 2,
      "byteOffset": 112416,
      "componentType": 5126,
      "count": 4560,
      "max": [
        0.90866422653198242,
        0.9776003360748291,
        0.90866398811340332
      ],
      "min": [
        -0.90866410732269287,
        -0.9776003360748291,
        -0.90866422653198242
      ],
      "type": "VEC3"
    },
    {
      "bufferView": 1,
      "byteOffset": 19232,
      "componentType": 5126,
      "count": 4560,
      "max": [
        1,
        1
      ],
      "min": [
        0,
        0
      ],
      "type": "VEC2"
    },
    {
      "bufferView": 0,
      "byteOffset": 38016,
      "componentType": 5125,
      "count": 6384,
      "max": [
        4559
      ],
      "min": [
        0
      ],
      "type": "SCALAR"
    }
  ],
  "asset": {
    "extras": {
      "author": "Aarondraws8 (https://sketchfab.com/Aarondraws8)",
      "license": "CC-BY-4.0 (http://creativecommons.org/licenses/by/4.0/)",
      "source": "https://sketchfab.com/3d-models/hand-sanitizer-5ca4e17948fe40d1a73359116309ee1f",
      "title": "Hand-sanitizer"
    },
    "generator": "Sketchfab-9.25.1",
    "version": "2.0"
  },
  "bufferViews": [
    {
      "buffer": 0,
      "byteLength": 63552,
      "byteOffset": 0,
      "name": "floatBufferViews",
      "target": 34963
    },
    {
      "buffer": 0,
      "byteLength": 55712,
      "byteOffset": 63552,
      "byteStride": 8,
      "name": "floatBufferViews",
      "target": 34962
    },
    {
      "buffer": 0,
      "byteLength": 167136,
      "byteOffset": 119264,
      "byteStride": 12,
      "name": "floatBufferViews",
      "target": 34962
    },
    {
      "buffer": 0,
      "byteLength": 19392,
      "byteOffset": 286400,
      "byteStride": 16,
      "name": "floatBufferViews",
      "target": 34962
    }
  ],
  "buffers": [
    {
      "byteLength": 305792,
      "uri": "scene.bin"
    }
  ],
  "images": [
    {
      "uri": "textures/aiLayerShader2_baseColor.png"
    },
    {
      "uri": "textures/aiLayerShader2_metallicRoughness.png"
    },
    {
      "uri": "textures/aiLayerShader2_normal.png"
    }
  ],
  "materials": [
    {
      "alphaMode": "BLEND",
      "doubleSided": true,
      "emissiveFactor": [
        0,
        0,
        0
      ],
      "name": "aiLayerShader2",
      "normalTexture": {
        "index": 2,
        "scale": 1,
        "texCoord": 0
      },
      "pbrMetallicRoughness": {
        "baseColorFactor": [
          1,
          1,
          1,
          0.49420407493205409
        ],
        "baseColorTexture": {
          "index": 0,
          "texCoord": 0
        },
        "metallicFactor": 0,
        "metallicRoughnessTexture": {
          "index": 1,
          "texCoord": 0
        },
        "roughnessFactor": 1
      }
    },
    {
      "alphaMode": "BLEND",
      "doubleSided": true,
      "name": "liquid",
      "pbrMetallicRoughness": {
        "baseColorFactor": [
          1,
          1,
          1,
          0.67052909666867311
        ],
        "metallicFactor": 0,
        "roughnessFactor": 0.59999999999999998
      }
    }
  ],
  "meshes": [
    {
      "name": "bottle_main_aiLayerShader2_0",
      "primitives": [
        {
          "attributes": {
            "NORMAL": 1,
            "POSITION": 0,
            "TANGENT": 2,
            "TEXCOORD_0": 3
          },
          "indices": 4,
          "material": 0,
          "mode": 4
        }
      ]
    },
    {
      "name": "fill_liquid_0",
      "primitives": [
        {
          "attributes": {
            "NORMAL": 6,
            "POSITION": 5,
            "TEXCOORD_0": 7
          },
          "indices": 8,
          "material": 1,
          "mode": 4
        }
      ]
    },
    {
      "name": "bubbles_liquid_0",
      "primitives": [
        {
          "attributes": {
            "NORMAL": 10,
            "POSITION": 9,
            "TEXCOORD_0": 11
          },
          "indices": 12,
          "material": 1,
          "mode": 4
        }
      ]
    }
  ],
  "nodes": [
    {
      "children": [
        1
      ],
      "name": "RootNode (gltf orientation matrix)",
      "rotation": [
        -0.70710678118654746,
        -0,
        -0,
        0.70710678118654757
      ]
    },
    {
      "children": [
        2
      ],
      "name": "RootNode (model correction matrix)"
    },
    {
      "children": [
        3
      ],
      "matrix": [
        1,
        0,
        0,
        0,
        0,
        0,
        1,
        0,
        0,
        -1,
        0,
        0,
        0,
        0,
        0,
        1
      ],
      "name": "db7efcd93dd44c7cbd62309d33c551bc.fbx"
    },
    {
      "children": [
        4
      ],
      "name": "RootNode"
    },
    {
      "children": [
        5,
        7,
        9
      ],
      "name": "group1"
    },
    {
      "children": [
        6
      ],
      "matrix": [
        1,
        0,
        0,
        0,
        0,
        1,
        0,
        0,
        0,
        0,
        1,
        0,
        0,
        7.4552068710327148,
        0,
        1
      ],
      "name": "bottle_main"
    },
    {
      "mesh": 0,
      "name": "bottle_main_aiLayerShader2_0"
    },
    {
      "children": [
        8
      ],
      "matrix": [
        0.97451132535934448,
        0,
        0,
        0,
        0,
        0.97451132535934448,
        0,
        0,
        0,
        0,
        0.97451132535934448,
        0,
        -3.0384854632359293e-09,
        7.3320097923278809,
        0,
        1
      ],
      "name": "fill"
    },
    {
      "mesh": 1,
      "name": "fill_liquid_0"
    },
    {
      "children": [
        10
      ],
      "name": "bubbles"
    },
    {
      "mesh": 2,
      "name": "bubbles_liquid_0"
    }
  ],
  "samplers": [
    {
      "magFilter": 9729,
      "minFilter": 9987,
      "wrapS": 10497,
      "wrapT": 10497
    }
  ],
  "scene": 0,
  "scenes": [
    {
      "name": "OSG_Scene",
      "nodes": [
        0
      ]
    }
  ],
  "textures": [
    {
      "sampler": 0,
      "source": 0
    },
    {
      "sampler": 0,
      "source": 1
    },
    {
      "sampler": 0,
      "source": 2
    }
  ]
}

